<svg xmlns="http://www.w3.org/2000/svg" xmlns:xlink="http://www.w3.org/1999/xlink" version="1.0" viewBox="0.0 0.0 500.0 500.0"><g><g><path d="M252.1,186c-23.9,0-43.3,19.4-43.3,43.3c0,23.8,19.4,43.2,43.3,43.2c23.8,0,43.2-19.4,43.2-43.2 C295.4,205.4,276,186,252.1,186z" style="fill:#ff7a91"/></g><g><path d="M250,0C111.9,0,0,111.9,0,250s111.9,250,250,250s250-111.9,250-250S388.1,0,250,0z M309.1,354.9 c-25.4,29.3-50.6,45.9-51.6,46.6c-1.6,1.1-3.5,1.6-5.3,1.6c-1.9,0-3.7-0.5-5.3-1.6c-1.1-0.7-26.2-17.3-51.6-46.6 c-34-39.2-52-82.7-52-125.6c0-60.1,48.9-109,109-109c60.1,0,109,48.9,109,109C361.1,272.2,343.1,315.6,309.1,354.9z" style="fill:#ff7a91"/></g></g></svg>