<svg xmlns="http://www.w3.org/2000/svg" xmlns:xlink="http://www.w3.org/1999/xlink" version="1.0" viewBox="0.7 0.9 38.5 65.5"><g fill-rule="evenodd" id="__id1_ssueg0sryb" style="fill:#ff7a91;"><path d="M 37.792969 19.285156 L 37.792969 19.574219 C 29.9375 19.574219 19.367188 19.636719 19.367188 30.378906 L 19.367188 66.332031 L 19.082031 66.332031 L 19.082031 30.378906 C 19.082031 19.636719 8.511719 19.574219 0.65625 19.574219 L 0.65625 19.285156 C 17.832031 19.285156 19.082031 16.5 19.082031 0.863281 L 19.367188 0.863281 C 19.367188 16.5 20.617188 19.285156 37.792969 19.285156" style="fill: inherit;"/><path d="M 39.113281 43.472656 L 39.113281 43.585938 C 35.945312 43.585938 31.683594 43.613281 31.683594 47.945312 L 31.683594 62.453125 L 31.566406 62.453125 L 31.566406 47.945312 C 31.566406 43.613281 27.300781 43.585938 24.132812 43.585938 L 24.132812 43.472656 C 31.0625 43.472656 31.566406 42.347656 31.566406 36.039062 L 31.683594 36.039062 C 31.683594 42.347656 32.183594 43.472656 39.113281 43.472656" style="fill: inherit;"/></g></svg>