<svg xmlns="http://www.w3.org/2000/svg" xmlns:xlink="http://www.w3.org/1999/xlink" version="1.0" viewBox="0.0 0.0 500.0 500.0"><g id="__id2_ssueg0sryb"><path d="M250,0C111.9,0,0,111.9,0,250c0,138.1,111.9,250,250,250s250-111.9,250-250C500,111.9,388.1,0,250,0z M198.3,124.7c14.3-14.3,31.7-21.5,51.9-21.5c20.2,0,37.7,7.2,51.9,21.5c14.3,14.3,21.5,31.8,21.5,51.9c0,20.2-7.2,37.7-21.5,51.9 c-14.3,14.3-31.8,21.5-51.9,21.5c-20.2,0-37.6-7.2-51.9-21.5c-14.3-14.3-21.5-31.8-21.5-51.9C176.7,156.5,184,139,198.3,124.7z M364.3,394.1c-9.9,9.4-22.9,14.1-38.8,14.1H178.7c-15.9,0-28.9-4.8-38.8-14.1c-10-9.5-15-22.4-15-38.3c0-6.1,0.2-12.2,0.6-18 c0.4-6,1.2-12.4,2.5-19.3c1.2-6.9,2.8-13.4,4.7-19.4c2-6.2,4.7-12.2,8-18.1c3.4-6,7.5-11.3,12-15.7c4.7-4.5,10.6-8.2,17.3-10.8 c6.7-2.6,14.1-4,22-4c3.1,0,6.1,1.3,11.9,5.1c3.6,2.4,7.8,5.1,12.4,8c4,2.5,9.4,4.9,16.1,7.1c6.5,2.1,13.1,3.2,19.7,3.2 c6.5,0,13.2-1.1,19.7-3.2c6.7-2.2,12.1-4.5,16.1-7.1c4.7-3,8.9-5.7,12.4-8c5.8-3.8,8.8-5.1,11.9-5.1c7.9,0,15.3,1.3,22,4 c6.7,2.7,12.5,6.3,17.3,10.8c4.5,4.3,8.6,9.6,12,15.7c3.3,5.8,6,11.9,8,18.1c1.9,6,3.5,12.5,4.7,19.4c1.2,6.8,2.1,13.3,2.5,19.3 c0.4,5.8,0.6,11.9,0.6,18C379.3,371.7,374.3,384.6,364.3,394.1z" style="fill:#ff7a91"/></g></svg>