<svg xmlns="http://www.w3.org/2000/svg" xmlns:xlink="http://www.w3.org/1999/xlink" version="1.0" viewBox="0.0 0.0 500.0 500.0"><g id="__id3_ssueg0sryb"><path d="M250,0C111.9,0,0,111.9,0,250s111.9,250,250,250s250-111.9,250-250S388.1,0,250,0z M373.3,159.9h-45.7 c-9.7-21-22.6-39.5-38.2-54.5C323.2,113.9,352.5,133.4,373.3,159.9z M177,244.7c1.1-22.8,5.6-44.6,13.1-64.3h124.1 c7.5,19.7,12.1,41.5,13.1,64.3H177z M327.3,265.1c-1.1,22.8-5.6,44.6-13.1,64.3H190.1c-7.5-19.7-12.1-41.5-13.1-64.3H327.3z M252.1,102.4c21.8,13,39.8,33,52.8,57.6H199.3C212.3,135.4,230.4,115.3,252.1,102.4z M214.8,105.4c-15.5,15-28.5,33.5-38.2,54.5 h-45.7C151.7,133.4,181.1,113.9,214.8,105.4z M117.3,180.4h51.1c-6.8,20-11,41.8-11.9,64.3H98.4C100,221.5,106.6,199.7,117.3,180.4 z M98.4,265.1h58.1c1,22.5,5.1,44.2,11.9,64.3h-51.1C106.6,310.1,100,288.3,98.4,265.1z M130.9,349.9h45.7 c9.7,21,22.6,39.5,38.2,54.5C181.1,395.9,151.7,376.4,130.9,349.9z M252.1,407.4c-21.8-13-39.8-33-52.8-57.6h105.6 C291.9,374.4,273.9,394.5,252.1,407.4z M289.5,404.4c15.5-15,28.5-33.5,38.2-54.5h45.7C352.5,376.4,323.2,395.9,289.5,404.4z M386.9,329.4h-51.1c6.8-20,11-41.8,11.9-64.3h58.1C404.3,288.3,397.6,310.1,386.9,329.4z M347.8,244.7c-1-22.5-5.1-44.2-11.9-64.3 h51.1c10.7,19.3,17.4,41.1,18.9,64.3H347.8z" style="fill:#ff7a91"/></g></svg>